/* XPM */
static char * hide_pressed_xpm[] = {
"20 24 25 1",
" 	c None",
".	c #939393",
"+	c #FFFFFF",
"@	c #DEDEDE",
"#	c #DCDDE0",
"$	c #DADBDE",
"%	c #D0D2D6",
"&	c #CACCD2",
"*	c #C8CAD0",
"=	c #D4D6DA",
"-	c #C8CBD1",
";	c #D8D9DD",
">	c #E7E8EA",
",	c #F0F0F0",
"'	c #D7D9DD",
")	c #CBCDD2",
"!	c #E9EAEA",
"~	c #F1F1F2",
"{	c #D1D2D7",
"]	c #EFF0F0",
"^	c #747984",
"/	c #EFEFF0",
"(	c #C7CAD0",
"_	c #D5D6DA",
":	c #E7E7EA",
"....................",
"++++++++++++++++++++",
"@@@@@@@@@@@@@@@@@@@@",
"@@@@@@@@@@@@@@@@@@@@",
"####################",
"####################",
"######$%&**&%$######",
"#####=-;>,,>'-=#####",
"####=)!~~~~~~!)=####",
"###$-!~~~~~~~~!-$###",
"###%;~~~~~~~~~~'{###",
"###&>~~~~~~~~~~>&###",
"###*]~~^^^^^^~~]*###",
"###*]~~^^^^^^~~/(###",
"###&>~~~~~~~~~~>&###",
"###%'~~~~~~~~~~'{###",
"###$-!~~~~~~~~!-$###",
"####=)!~~~~~~!)_####",
"#####=-'>]]:'-_#####",
"######${&**&{$######",
"####################",
"####################",
"@@@@@@@@@@@@@@@@@@@@",
"@@@@@@@@@@@@@@@@@@@@"};
