/* XPM */
static char * maximize_inactive_xpm[] = {
"20 24 14 1",
" 	c None",
".	c #939393",
"+	c #FFFFFF",
"@	c #DEDEDE",
"#	c #DCDDE0",
"$	c #DBDCDF",
"%	c #BCBFC3",
"&	c #ACAFB7",
"*	c #B6B9C0",
"=	c #BBBEC2",
"-	c #DADBDF",
";	c #DBDCE0",
">	c #BDBFC4",
",	c #B5B8BE",
"....................",
"++++++++++++++++++++",
"@@@@@@@@@@@@@@@@@@@@",
"@@@@@@@@@@@@@@@@@@@@",
"@@@@@@@@@@@@@@@@@@@@",
"####################",
"####################",
"####################",
"####################",
"####################",
"#######$%&&*########",
"######$#$%&&########",
"#####$=-#;>&########",
"#####$&=-#;>########",
"#####$&&%$#$########",
"######,&&%$#########",
"####################",
"####################",
"####################",
"####################",
"####################",
"@@@@@@@@@@@@@@@@@@@@",
"@@@@@@@@@@@@@@@@@@@@",
"@@@@@@@@@@@@@@@@@@@@"};
