/* XPM */
static char * maximize_active_xpm[] = {
"20 24 10 1",
" 	c None",
".	c #939393",
"+	c #FFFFFF",
"@	c #DEDEDE",
"#	c #ACAFB7",
"$	c #90949E",
"%	c #A0A5AD",
"&	c #A9ADB4",
"*	c #ADB0B8",
"=	c #A0A4AB",
"....................",
"++++++++++++++++++++",
"@@@@@@@@@@@@@@@@@@@@",
"@@@@@@@@@@@@@@@@@@@@",
"@@@@@@@@@@@@@@@@@@@@",
"@@@@@@@@@@@@@@@@@@@@",
"@@@@@@@@@@@@@@@@@@@@",
"@@@@@@@@@@@@@@@@@@@@",
"@@@@@@@@@@@@@@@@@@@@",
"@@@@@@@@@@@@@@@@@@@@",
"@@@@@@@@@#$$%@@@@@@@",
"@@@@@@@@@@#$$@@@@@@@",
"@@@@@@@&@@@*$@@@@@@@",
"@@@@@@@$&@@@*@@@@@@@",
"@@@@@@@$$#@@@@@@@@@@",
"@@@@@@@=$$#@@@@@@@@@",
"@@@@@@@@@@@@@@@@@@@@",
"@@@@@@@@@@@@@@@@@@@@",
"@@@@@@@@@@@@@@@@@@@@",
"@@@@@@@@@@@@@@@@@@@@",
"@@@@@@@@@@@@@@@@@@@@",
"@@@@@@@@@@@@@@@@@@@@",
"@@@@@@@@@@@@@@@@@@@@",
"@@@@@@@@@@@@@@@@@@@@"};
