/* XPM */
static char * maximize_prelight_xpm[] = {
"20 24 33 1",
" 	c None",
".	c #939393",
"+	c #FFFFFF",
"@	c #DEDEDE",
"#	c #DDDEE1",
"$	c #DBDCDF",
"%	c #D1D3D7",
"&	c #CBCDD3",
"*	c #C9CBD1",
"=	c #D5D7DB",
"-	c #C9CCD2",
";	c #D9DADE",
">	c #E9EAEB",
",	c #F1F1F1",
"'	c #D8DADE",
")	c #CCCED4",
"!	c #EAEBEB",
"~	c #F2F2F3",
"{	c #F0F0F1",
"]	c #9EA1A7",
"^	c #757A85",
"/	c #8D919A",
"(	c #D2D4D8",
"_	c #F0F1F1",
":	c #F1F1F2",
"<	c #9A9EA5",
"[	c #EFEFF0",
"}	c #F0F1F2",
"|	c #A1A3AA",
"1	c #C8CBD1",
"2	c #8C9098",
"3	c #D6D7DB",
"4	c #E9E9EB",
"....................",
"++++++++++++++++++++",
"@@@@@@@@@@@@@@@@@@@@",
"####################",
"####################",
"####################",
"######$%&**&%$######",
"#####=-;>,,>'-=#####",
"####=)!~~~~~~!)=####",
"###$-!~~~~~~~~!-$###",
"###%;~~~{]^^/~~'(###",
"###&>~~{~{]^^~~>&###",
"###*_~:<[~}|^~~_*###",
"###*_~:^<[~}|~~{1###",
"###&>~:^^]{~{~~>&###",
"###%'~~2^^]{~~~'(###",
"###$-!~~~~~~~~!-$###",
"####=)!~~~~~~!)3####",
"#####=-'>__4'-3#####",
"######$(&**&($######",
"####################",
"####################",
"@@@@@@@@@@@@@@@@@@@@",
"@@@@@@@@@@@@@@@@@@@@"};
