/* XPM */
static char * maximize_pressed_xpm[] = {
"20 24 35 1",
" 	c None",
".	c #939393",
"+	c #FFFFFF",
"@	c #DEDEDE",
"#	c #DDDEE1",
"$	c #D1D8DF",
"%	c #93B5DC",
"&	c #699CD9",
"*	c #5591D9",
"=	c #699CDB",
"-	c #94B4DC",
";	c #ADC2DD",
">	c #5692D8",
",	c #4F8ED9",
"'	c #ADC3DD",
")	c #5692D9",
"!	c #D1D7E0",
"~	c #5290DA",
"{	c #BFD4EB",
"]	c #F4F4F4",
"^	c #D4E0EE",
"/	c #95B4DC",
"(	c #689CDA",
"_	c #5691D9",
":	c #508FD9",
"<	c #C3D7EB",
"[	c #5491DA",
"}	c #518FD9",
"|	c #BBD1EA",
"1	c #D6E1EF",
"2	c #95B5DB",
"3	c #5792D9",
"4	c #D1D8E0",
"5	c #AEC4DE",
"6	c #6A9CDA",
"....................",
"++++++++++++++++++++",
"@@@@@@@@@@@@@@@@@@@@",
"@@@@@@@@@@@@@@@@@@@@",
"####################",
"####################",
"#####$%&**=-$#######",
"####;>,,,,,,>'######",
"###;,,,,,,,,,,'#####",
"##$>,,,,,,,,,,)!####",
"##%,,,,~{]]^,,,/####",
"##(,,,~,~{]],,,=####",
"##_,,:<[,}|],,,>####",
"##>,,:]<[,}|,,,)####",
"##&,,:]]{~,~,,,=####",
"##-,,,1]]{~,,,,2####",
"##$>,,,,,,,,,,34####",
"###',,,,,,,,,,5#####",
"####'),,,,,,35######",
"#####!/6__624#######",
"####################",
"####################",
"####################",
"@@@@@@@@@@@@@@@@@@@@"};
